<?xml version="1.0" encoding="utf-8"?>
<!-- Generator: Adobe Illustrator 23.0.3, SVG Export Plug-In . SVG Version: 6.00 Build 0)  -->
<svg version="1.1" id="Icons" xmlns="http://www.w3.org/2000/svg" xmlns:xlink="http://www.w3.org/1999/xlink" x="0px" y="0px"
	 viewBox="0 0 32 32" style="enable-background:new 0 0 32 32;" xml:space="preserve">
<style type="text/css">
	.st0{fill:none;stroke:#000000;stroke-width:2;stroke-linecap:round;stroke-linejoin:round;stroke-miterlimit:10;}
</style>
<g>
	<circle fill="rgb(64, 96, 160)" cx="23" cy="14" r="1"/>
	<path fill="rgb(64, 96, 160)" d="M31.9,24.8C31.9,24.8,31.9,24.8,31.9,24.8L29,9.9c-0.3-1.6-1.3-3-2.7-3.8c-2.3-1.4-5.2-1-7,0.9L18.1,8h-4.3l-1.1-1.1
		c-1.9-1.9-4.8-2.2-7-0.9C4.3,6.9,3.4,8.3,3,9.9l-3,14.9c-0.2,1,0.1,2.1,0.7,2.9C1.5,28.5,2.5,29,3.5,29c0.9,0,1.7-0.4,2.3-1
		l3.8-4.3C11,22,13.2,21,15.4,21h1.1c2.3,0,4.4,1,5.9,2.7l3.8,4.3c0.6,0.7,1.4,1,2.3,1c1.1,0,2.1-0.5,2.7-1.3S32.1,25.8,31.9,24.8z
		 M11,15h-1v1c0,0.6-0.4,1-1,1s-1-0.4-1-1v-1H7c-0.6,0-1-0.4-1-1s0.4-1,1-1h1v-1c0-0.6,0.4-1,1-1s1,0.4,1,1v1h1c0.6,0,1,0.4,1,1
		S11.6,15,11,15z M17,17h-2c-0.6,0-1-0.4-1-1s0.4-1,1-1h2c0.6,0,1,0.4,1,1S17.6,17,17,17z M17,14h-2c-0.6,0-1-0.4-1-1s0.4-1,1-1h2
		c0.6,0,1,0.4,1,1S17.6,14,17,14z M23,17c-1.7,0-3-1.3-3-3s1.3-3,3-3s3,1.3,3,3S24.7,17,23,17z"/>
</g>
</svg>
