<?xml version="1.0" encoding="utf-8"?>
<!-- Generator: Adobe Illustrator 23.0.3, SVG Export Plug-In . SVG Version: 6.00 Build 0)  -->
<svg version="1.1" id="Icons" xmlns="http://www.w3.org/2000/svg" xmlns:xlink="http://www.w3.org/1999/xlink" x="0px" y="0px"
	 viewBox="0 0 32 32" style="enable-background:new 0 0 32 32;" xml:space="preserve">
<style type="text/css">
	.st0{fill:none;stroke:#000000;stroke-width:2;stroke-linecap:round;stroke-linejoin:round;stroke-miterlimit:10;}
</style>
<g>
	<path fill="rgb(64, 96, 160)" d="M23,28L23,28c-1.1,0-2.1-0.7-2.5-1.8c0-0.1,0-0.2-0.1-0.2h-8.9c0,0.1,0,0.2-0.1,0.2C11.1,27.3,10.1,28,9,28h0
		c-0.6,0-1,0.4-1,1s0.4,1,1,1h14c0.6,0,1-0.4,1-1S23.6,28,23,28z"/>
</g>
<path fill="rgb(64, 96, 160)" d="M27,3H5C3.3,3,2,4.3,2,6v15c0,1.7,1.3,3,3,3h6.9h8.1H27c1.7,0,3-1.3,3-3V6C30,4.3,28.7,3,27,3z M25,15h-5
	c-0.3,0-0.6-0.2-0.8-0.4l-0.9-1.4l-1.3,3.2C16.8,16.7,16.4,17,16,17c0,0,0,0,0,0c-0.4,0-0.7-0.2-0.9-0.6l-1.4-2.8l-1,1
	C12.5,14.9,12.3,15,12,15H7c-0.6,0-1-0.4-1-1s0.4-1,1-1h4.6l1.7-1.7c0.2-0.2,0.6-0.3,0.9-0.3c0.3,0.1,0.6,0.3,0.7,0.5l1,2l1.2-2.9
	c0.1-0.3,0.5-0.6,0.8-0.6c0.4,0,0.7,0.1,0.9,0.4l1.7,2.6H25c0.6,0,1,0.4,1,1S25.6,15,25,15z"/>
</svg>
