{
    "asset": {
        "version": "2.0"
    },
    "scenes": [
        {
            "nodes": [
                0
            ]
        }
    ],
    "nodes": [
        {
            "mesh": 0
        }
    ],
    "meshes": [
        {
            "primitives": [
                {
                    "indices": 0,
                    "attributes": {
                        "POSITION": 1,
                        "NORMAL": 2
                    }
                }
            ]
        }
    ],
    "accessors": [
        {
            "type": "SCALAR",
            "componentType": 5125,
            "bufferView": 0,
            "count": 445032
        },
        {
            "type": "VEC3",
            "componentType": 5126,
            "bufferView": 1,
            "count": 74164,
            "byteOffset": 0,
            "min": [
                -0.8665333986282349,
                -0.8665333986282349,
                -0.8665333986282349
            ],
            "max": [
                0.8665333986282349,
                0.8665333986282349,
                0.8665333986282349
            ]
        },
        {
            "type": "VEC3",
            "componentType": 5126,
            "bufferView": 1,
            "count": 74164,
            "byteOffset": 12
        }
    ],
    "bufferViews": [
        {
            "buffer": 0,
            "byteOffset": 0,
            "byteLength": 1780128
        },
        {
            "buffer": 0,
            "byteOffset": 1780128,
            "byteLength": 1779936,
            "byteStride": 24
        }
    ],
    "buffers": [
        {
            "uri": "./ScalarFieldIn.bin",
            "byteLength": 3560064
        }
    ]
}