{
    "asset": {
        "version": "2.0"
    },
    "scene": 0,
    "scenes": [
        {
            "nodes": [
                0,
                1
            ]
        }
    ],
    "nodes": [
        {
            "mesh": 0
        },
        {
            "mesh": 1
        }
    ],
    "meshes": [
        {
            "primitives": [
                {
                    "indices": 0,
                    "attributes": {
                        "POSITION": 1,
                        "NORMAL": 2
                    }
                }
            ]
        },
        {
            "primitives": [
                {
                    "indices": 3,
                    "attributes": {
                        "POSITION": 4,
                        "NORMAL": 5
                    }
                }
            ]
        }
    ],
    "accessors": [
        {
            "type": "SCALAR",
            "componentType": 5125,
            "bufferView": 0,
            "count": 555048
        },
        {
            "type": "VEC3",
            "componentType": 5126,
            "bufferView": 1,
            "count": 92486,
            "byteOffset": 0,
            "min": [
                -0.967835009098053,
                -0.967835009098053,
                -0.967835009098053
            ],
            "max": [
                0.967835009098053,
                0.967835009098053,
                0.967835009098053
            ]
        },
        {
            "type": "VEC3",
            "componentType": 5126,
            "bufferView": 1,
            "count": 92486,
            "byteOffset": 12
        },
        {
            "type": "SCALAR",
            "componentType": 5125,
            "bufferView": 2,
            "count": 445032
        },
        {
            "type": "VEC3",
            "componentType": 5126,
            "bufferView": 3,
            "count": 74164,
            "byteOffset": 0,
            "min": [
                -0.8665333986282349,
                -0.8665333986282349,
                -0.8665333986282349
            ],
            "max": [
                0.8665333986282349,
                0.8665333986282349,
                0.8665333986282349
            ]
        },
        {
            "type": "VEC3",
            "componentType": 5126,
            "bufferView": 3,
            "count": 74164,
            "byteOffset": 12
        }
    ],
    "bufferViews": [
        {
            "buffer": 0,
            "byteOffset": 0,
            "byteLength": 2220192
        },
        {
            "buffer": 0,
            "byteOffset": 2220192,
            "byteLength": 2219664,
            "byteStride": 24
        },
        {
            "buffer": 1,
            "byteOffset": 0,
            "byteLength": 1780128
        },
        {
            "buffer": 1,
            "byteOffset": 1780128,
            "byteLength": 1779936,
            "byteStride": 24
        }
    ],
    "buffers": [
        {
            "uri": "./ScalarFieldOut.bin",
            "byteLength": 4439856
        },
        {
            "uri": "./ScalarFieldIn.bin",
            "byteLength": 3560064
        }
    ]
}