{
    "asset": {
        "version": "2.0"
    },
    "scenes": [
        {
            "nodes": [
                0
            ]
        }
    ],
    "nodes": [
        {
            "mesh": 0
        }
    ],
    "meshes": [
        {
            "primitives": [
                {
                    "indices": 0,
                    "attributes": {
                        "POSITION": 1,
                        "NORMAL": 2
                    }
                }
            ]
        }
    ],
    "accessors": [
        {
            "type": "SCALAR",
            "componentType": 5125,
            "bufferView": 0,
            "count": 555048
        },
        {
            "type": "VEC3",
            "componentType": 5126,
            "bufferView": 1,
            "count": 92486,
            "byteOffset": 0,
            "min": [
                -0.967835009098053,
                -0.967835009098053,
                -0.967835009098053
            ],
            "max": [
                0.967835009098053,
                0.967835009098053,
                0.967835009098053
            ]
        },
        {
            "type": "VEC3",
            "componentType": 5126,
            "bufferView": 1,
            "count": 92486,
            "byteOffset": 12
        }
    ],
    "bufferViews": [
        {
            "buffer": 0,
            "byteOffset": 0,
            "byteLength": 2220192
        },
        {
            "buffer": 0,
            "byteOffset": 2220192,
            "byteLength": 2219664,
            "byteStride": 24
        }
    ],
    "buffers": [
        {
            "uri": "./ScalarFieldOut.bin",
            "byteLength": 4439856
        }
    ]
}