{"asset":{"version":"2.0"},"scenes":[{"nodes":[0]}],"nodes":[{"mesh":0}],"meshes":[{"primitives":[{"indices":0,"attributes":{"POSITION":1,"NORMAL":2}}]}],"accessors":[{"type":"SCALAR","componentType":5123,"bufferView":0,"count":210372},{"type":"VEC3","componentType":5126,"bufferView":1,"count":35208,"byteOffset":0,"min":[-0.9417969584465027,-1,-0.4840908348560333],"max":[0.9241752028465271,1,0.8276349902153015]},{"type":"VEC3","componentType":5126,"bufferView":1,"count":35208,"byteOffset":12}],"bufferViews":[{"buffer":0,"byteOffset":0,"byteLength":420744},{"buffer":0,"byteOffset":420744,"byteLength":844992,"byteStride":24}],"buffers":[{"uri":"./SculptTorso.bin","byteLength":1265736}]}