{"asset":{"version":"2.0"},"scenes":[{"nodes":[0]}],"nodes":[{"mesh":0}],"meshes":[{"primitives":[{"indices":0,"attributes":{"POSITION":1,"NORMAL":2}}]}],"accessors":[{"type":"SCALAR","componentType":5123,"bufferView":0,"count":225840},{"type":"VEC3","componentType":5126,"bufferView":1,"count":37543,"byteOffset":0,"min":[-0.75,-0.9865761399269104,-0.75],"max":[0.8630815148353577,0.8444074988365173,0.8987174034118652]},{"type":"VEC3","componentType":5126,"bufferView":1,"count":37543,"byteOffset":12}],"bufferViews":[{"buffer":0,"byteOffset":0,"byteLength":451680},{"buffer":0,"byteOffset":451680,"byteLength":901032,"byteStride":24}],"buffers":[{"uri":"./SculptHead.bin","byteLength":1352712}]}